<svg width="24" height="24" viewBox="0 0 24 24" fill="none" xmlns="http://www.w3.org/2000/svg">
<g clip-path="url(#clip0_1_54)">
<path d="M23.625 12C23.625 5.57812 18.4219 0.375 12 0.375C5.57812 0.375 0.375 5.57812 0.375 12C0.375 18.4219 5.57812 23.625 12 23.625C18.4219 23.625 23.625 18.4219 23.625 12ZM12 22.125C6.43594 22.125 1.875 17.6203 1.875 12C1.875 6.43594 6.37969 1.875 12 1.875C17.5641 1.875 22.125 6.37969 22.125 12C22.125 17.5641 17.6203 22.125 12 22.125ZM11.4141 17.7891L6.01875 12.3984C5.79844 12.1781 5.79844 11.8219 6.01875 11.6016L11.4141 6.21094C11.6344 5.99062 11.9906 5.99062 12.2109 6.21094L12.5344 6.53437C12.7547 6.75469 12.7547 7.12031 12.525 7.33594L8.51719 11.2031H17.4375C17.7469 11.2031 18 11.4563 18 11.7656V12.2344C18 12.5437 17.7469 12.7969 17.4375 12.7969H8.51719L12.5297 16.6641C12.7547 16.8844 12.7594 17.2453 12.5391 17.4656L12.2156 17.7891C11.9906 18.0094 11.6344 18.0094 11.4141 17.7891Z" fill="black"/>
</g>
<defs>
<clipPath id="clip0_1_54">
<rect width="24" height="24" fill="white"/>
</clipPath>
</defs>
</svg>
