<?xml version="1.0" encoding="utf-8"?>
<!-- Generator: Adobe Illustrator 27.6.1, SVG Export Plug-In . SVG Version: 6.00 Build 0)  -->
<svg version="1.1" id="Layer_1" xmlns="http://www.w3.org/2000/svg" xmlns:xlink="http://www.w3.org/1999/xlink" x="0px" y="0px"
	 viewBox="0 0 40 40" style="enable-background:new 0 0 40 40;" xml:space="preserve">
<style type="text/css">
	.st0{fill:#201965;}
	.st1{fill:#1D1663;}
	.st2{fill:#1F1864;}
	.st3{fill:#1D1662;}
	.st4{fill:#1C1562;}
	.st5{fill:#14A89D;}
	.st6{fill:#12A79C;}
	.st7{fill:#10A79C;}
	.st8{fill:#EEF9FA;}
	.st9{fill:#EFF7FA;}
	.st10{fill:#F1FAFB;}
	.st11{fill:#211B62;}
	.st12{fill:#1E1863;}
	.st13{fill:#201961;}
	.st14{fill-rule:evenodd;clip-rule:evenodd;fill:#00A0E3;}
	.st15{fill-rule:evenodd;clip-rule:evenodd;fill:#D7B56D;}
	.st16{fill-rule:evenodd;clip-rule:evenodd;fill:#FEFEFE;}
</style>
<path class="st0" d="M12.7,25.1c0,0.5,0,0.9,0,1.4c-0.3,0-0.5,0-0.7,0c-2.3,0-4.5,0-6.8,0c-0.2,0-0.4-0.1-0.7-0.2
	c0.1-0.2,0.1-0.5,0.3-0.7c1.7-1.8,3.5-3.5,5.3-5.4c0.8,0.8,1.6,1.6,2.3,2.4c0.1,0.1,0.2,0.4,0.2,0.6C12.7,23.9,12.7,24.5,12.7,25.1z
	"/>
<path class="st0" d="M27.2,23.7c-0.1-0.5,0.1-0.9,0.4-1.2c0.7-0.7,1.4-1.4,2.1-2.1c1.5,1.5,2.9,2.9,4.3,4.4c0.4,0.4,0.8,0.7,1.1,1.1
	c0.1,0.1,0.2,0.4,0.2,0.5c0,0.1-0.3,0.2-0.4,0.2c-2.5,0-5,0-7.5,0c0,0-0.1,0-0.2-0.1C27.2,25.6,27.2,24.6,27.2,23.7z"/>
<path class="st1" d="M12.2,13.4c0.2,0.1,0.4,0.2,0.4,0.4c0,1,0,1.9,0,2.9c0,0.2-0.1,0.4-0.3,0.6c-0.7,0.8-1.5,1.5-2.4,2.3
	c-1-1-2-2-2.9-3c-0.7-0.7-1.5-1.4-2.2-2.2c-0.2-0.2-0.3-0.5-0.5-0.8c0.3-0.1,0.6-0.2,0.9-0.2C7.7,13.4,9.9,13.4,12.2,13.4z"/>
<path class="st2" d="M25.4,34.7c-1.7-1.7-3.3-3.3-5-5c0.8-0.8,1.7-1.7,2.5-2.5c0.1-0.1,0.2-0.1,0.4-0.1c1.1,0,2.1,0,3.3,0
	c0,0.3,0,0.5,0,0.7c0,2.1,0,4.3,0,6.4c0,0.3-0.1,0.7-0.2,1C26,35.1,25.8,34.9,25.4,34.7z"/>
<path class="st1" d="M18.1,28.3c0.5,0.5,1,0.9,1.5,1.4c-1.7,1.6-3.3,3.2-4.9,4.8c-0.2,0.2-0.4,0.5-0.7,0.7c-0.3,0.2-0.6,0.2-0.6-0.3
	c0-2.6,0-5.1,0-7.7c1.2,0,2.3-0.1,3.4,0C17.2,27.3,17.6,27.9,18.1,28.3z"/>
<path class="st3" d="M32.5,13.4c0.8,0,1.5,0,2.2,0c0.2,0,0.4,0.1,0.6,0.2c-0.1,0.2-0.1,0.5-0.2,0.6c-1.7,1.8-3.5,3.5-5.4,5.4
	c-0.8-0.8-1.6-1.7-2.4-2.5c-0.1-0.1-0.1-0.2-0.1-0.4c0-1.1,0-2.2,0-3.3C29,13.4,30.7,13.4,32.5,13.4z"/>
<path class="st4" d="M19.3,10.4c-0.7,0.6-1.3,1.2-2,1.9c-0.3,0.3-0.6,0.4-1,0.4c-1,0-2,0-3.1,0c0-0.5,0-1.1,0-1.6c0-2,0-4,0-5.9
	c0-0.4,0-0.8,0.7-0.5c1.7,1.7,3.4,3.4,5.1,5.1C19.2,10,19.3,10.2,19.3,10.4z"/>
<path class="st4" d="M25.9,4.7c0.4-0.2,0.7-0.2,0.7,0.4c0,2.5,0,5,0,7.6c-1.2,0-2.3,0.1-3.4,0c-0.3,0-0.7-0.5-1-0.8
	c-0.3-0.3-0.6-0.5-0.9-0.8c-0.1-0.4-0.9-0.3-0.7-0.9C22.3,8.3,24.1,6.5,25.9,4.7z"/>
<path class="st5" d="M37.2,16c0.9,1.2,1.7,2.4,2.6,3.5c0.2,0.3,0.3,0.6,0,0.9c-1.3,1.7-2.6,3.4-3.8,5.1c-1.9-1.9-3.7-3.7-5.6-5.6
	c1.8-1.8,3.7-3.6,5.6-5.5C36.3,14.9,36.8,15.4,37.2,16z M37.4,18.2c-0.5-0.7-1.1-1.4-1.6-2.1c-1.3,1.3-2.6,2.6-3.8,3.7
	c1.3,1.3,2.5,2.6,3.9,4c0.8-1.1,1.6-2.2,2.5-3.3c0.3-0.4,0.3-0.6,0-1C38,19.1,37.7,18.7,37.4,18.2z"/>
<path class="st5" d="M22.4,38.2c-0.8,0.6-1.6,1.2-2.5,1.8c-1.9-1.4-3.7-2.7-5.6-4.1c1.9-1.9,3.8-3.7,5.7-5.5
	c1.7,1.7,3.6,3.6,5.5,5.5C24.6,36.6,23.5,37.4,22.4,38.2z M18.1,37.2c0.6,0.5,1.2,0.9,1.9,1.4c1.3-1,2.6-1.9,3.9-2.8
	c-1.3-1.4-2.6-2.6-3.8-3.8c-1.3,1.3-2.6,2.5-4,3.8C16.7,36.2,17.4,36.7,18.1,37.2z"/>
<path class="st6" d="M2.5,16.3C3,15.6,3.5,15,4,14.4c1.9,1.9,3.8,3.7,5.6,5.6c-1.8,1.8-3.7,3.7-5.6,5.6c-1.1-1.4-2.2-2.9-3.2-4.4
	c-0.9-1.2-0.9-1.2,0-2.4C1.3,17.9,1.9,17.1,2.5,16.3z M5.4,22.6c0.9-0.8,1.8-1.7,2.6-2.5c-1.4-1.4-2.7-2.7-4-4
	c-0.9,1.2-1.8,2.4-2.7,3.6c-0.1,0.1-0.1,0.4,0,0.5c0.9,1.2,1.8,2.5,2.8,3.8C4.6,23.5,5,23.1,5.4,22.6z"/>
<path class="st6" d="M12.7,34.9c-0.4,0.1-0.8,0.1-1.2,0c-1.8-0.2-3.5-0.5-5.3-0.8c-0.2,0-0.5-0.2-0.5-0.4c-0.4-2.2-0.7-4.3-1-6.6
	c2.7,0,5.3,0,8,0C12.7,29.8,12.7,32.3,12.7,34.9z M11.6,28.5c-0.2-0.1-0.4-0.2-0.6-0.2c-0.5,0-1,0-1.5,0c-1.1,0-2.3,0-3.6,0
	c0.3,1.6,0.5,3.2,0.8,4.7c0,0.1,0.2,0.2,0.3,0.2c1.5,0.2,3,0.4,4.5,0.7C11.6,32.1,11.6,30.3,11.6,28.5z"/>
<path class="st6" d="M27.2,28.2c0-0.4,0-0.7,0-1c2.7,0,5.3,0,8,0c-0.1,1-0.3,2-0.4,3c-0.2,1.2-0.4,2.3-0.5,3.5
	c0,0.4-0.2,0.5-0.6,0.6c-1.9,0.3-3.9,0.6-5.8,0.9c-0.2,0-0.4,0-0.7,0C27.2,32.8,27.2,30.6,27.2,28.2z M33.6,28.3c-1.6,0-3.1,0-4.7,0
	c-0.5,0-0.6,0.1-0.6,0.6c0,1.5,0,3,0,4.5c0,0.1,0.1,0.3,0.1,0.5c1.4-0.2,2.8-0.5,4.1-0.6c0.5-0.1,0.7-0.3,0.8-0.8
	c0.1-1.1,0.3-2.3,0.5-3.4C33.9,28.8,33.8,28.6,33.6,28.3z"/>
<path class="st7" d="M6.3,5.7c2.1-0.3,4.2-0.6,6.3-0.9c0,2.6,0,5.2,0,7.9c-2.6,0-5.3,0-8,0c0.3-2.2,0.6-4.3,1-6.5
	C5.7,6,6,5.9,6.3,5.7z M9.5,6.4C8.6,6.5,7.6,6.7,6.7,6.8C6.4,8.4,6.2,10,6,11.6c1.9,0,3.7,0,5.6,0c0-1.9,0-3.7,0-5.5
	C10.8,6.2,10.2,6.3,9.5,6.4z"/>
<path class="st7" d="M34.3,6.5c0.3,2.1,0.6,4.1,1,6.2c-2.7,0-5.3,0-8,0c0-2.7,0-5.3,0-7.9c2.2,0.3,4.3,0.6,6.4,0.9
	C34.1,5.8,34.3,6,34.3,6.5z M28.6,6.1c-0.1,0.2-0.3,0.3-0.3,0.5c0,1.1,0,2.1,0,3.2c0,0.6,0,1.2,0,1.8c1.9,0,3.7,0,5.6,0
	c-0.2-1.5-0.4-3-0.7-4.4c0-0.2-0.3-0.4-0.5-0.4C31.4,6.5,30.1,6.3,28.6,6.1z"/>
<path class="st8" d="M37.4,18.2c0.3,0.4,0.6,0.9,0.9,1.2c0.3,0.3,0.3,0.6,0,1c-0.9,1.1-1.7,2.2-2.5,3.3c-1.3-1.3-2.6-2.7-3.9-4
	c1.2-1.1,2.4-2.4,3.8-3.7C36.3,16.8,36.9,17.5,37.4,18.2z M37.1,19.5c-0.5-0.6-1-1.3-1.4-1.8c-0.8,0.8-1.6,1.5-2.3,2.2
	c0.8,0.8,1.5,1.5,2.3,2.3c0.5-0.6,1-1.3,1.4-2C37.3,20.1,37.2,19.8,37.1,19.5z"/>
<path class="st8" d="M18.1,37.2c-0.7-0.5-1.3-1-2-1.5c1.4-1.3,2.7-2.6,4-3.8c1.2,1.2,2.5,2.5,3.8,3.8c-1.2,0.9-2.5,1.9-3.9,2.8
	C19.3,38.1,18.7,37.7,18.1,37.2z M20.2,37.1c0.7-0.5,1.4-1,2-1.5c-0.8-0.8-1.5-1.6-2.2-2.3c-0.8,0.7-1.5,1.5-2.3,2.3
	c0.7,0.5,1.4,1,2,1.5C19.8,37.2,20,37.2,20.2,37.1z"/>
<path class="st8" d="M5.4,22.6C5,23.1,4.6,23.5,4.2,24c-1-1.4-1.9-2.6-2.8-3.8c-0.1-0.1,0-0.4,0-0.5c0.9-1.2,1.8-2.4,2.7-3.6
	c1.3,1.3,2.6,2.6,4,4C7.2,20.9,6.3,21.8,5.4,22.6z M6.5,19.9c-0.8-0.8-1.5-1.5-2.3-2.3c-0.5,0.7-1.1,1.4-1.5,2.1
	c-0.1,0.1-0.1,0.4,0,0.5c0.5,0.7,1,1.4,1.5,2.1C5,21.5,5.8,20.8,6.5,19.9z"/>
<path class="st9" d="M11.6,28.6c0,1.8,0,3.5,0,5.3C10,33.6,8.5,33.4,7,33.2c-0.1,0-0.3-0.1-0.3-0.2c-0.3-1.5-0.5-3-0.8-4.7
	c1.3,0,2.4,0,3.6,0c0.5,0,1,0,1.5,0C11.2,28.3,11.4,28.4,11.6,28.6z M8.4,29.3c-0.4,0-0.8,0-1.2,0c0.1,0.9,0.2,1.8,0.4,2.6
	c0,0.1,0.3,0.3,0.5,0.4c0.8,0.1,1.6,0.3,2.4,0.4c0-1.1,0-2.2,0-3.3C9.8,29.3,9.1,29.3,8.4,29.3z"/>
<path class="st8" d="M33.7,28.3c0.1,0.3,0.2,0.5,0.2,0.8c-0.1,1.1-0.4,2.3-0.5,3.4c-0.1,0.5-0.3,0.7-0.8,0.8
	c-1.4,0.2-2.7,0.4-4.1,0.6c0-0.2-0.1-0.3-0.1-0.5c0-1.5,0-3,0-4.5c0-0.5,0.1-0.6,0.6-0.6C30.5,28.3,32,28.3,33.7,28.3z M29.4,32.3
	c0,0.3,0.1,0.4,0.4,0.3c0.8-0.1,1.6-0.3,2.5-0.4c0.1-0.9,0.3-1.9,0.4-2.9c-1.1,0-2.2,0-3.3,0C29.4,30.3,29.4,31.2,29.4,32.3z"/>
<path class="st10" d="M9.5,6.4c0.7-0.1,1.3-0.2,2-0.3c0,1.8,0,3.7,0,5.5c-1.8,0-3.6,0-5.6,0C6.2,10,6.4,8.4,6.7,6.8
	C7.6,6.7,8.6,6.5,9.5,6.4z M10.5,7.8c0-0.2,0-0.3-0.1-0.5C9.6,7.4,8.8,7.5,8,7.7c-0.1,0-0.4,0.1-0.4,0.3c-0.2,0.9-0.3,1.8-0.4,2.7
	c1.2,0,2.2,0,3.3,0C10.5,9.7,10.5,8.8,10.5,7.8z"/>
<path class="st8" d="M28.7,6.1c1.4,0.2,2.7,0.4,4.1,0.6c0.2,0,0.5,0.2,0.5,0.4c0.2,1.5,0.5,2.9,0.7,4.4c-1.9,0-3.7,0-5.6,0
	c0-0.6,0-1.2,0-1.8c0-1.1,0-2.1,0-3.2C28.3,6.4,28.5,6.3,28.7,6.1z M32.7,10.4c-0.1-0.5-0.1-1-0.2-1.5c-0.2-1.2-0.2-1.2-1.4-1.4
	c-0.5-0.1-1.1-0.2-1.7-0.3c0,0.6,0,1.1,0,1.6c0,0.6,0,1.1,0,1.6C30.5,10.5,31.6,10.5,32.7,10.4z"/>
<path class="st11" d="M37.1,19.6c0,0.2,0.1,0.5,0.1,0.6c-0.5,0.7-1,1.3-1.4,2c-0.8-0.8-1.5-1.6-2.3-2.3c0.7-0.6,1.4-1.4,2.3-2.2
	C36.2,18.3,36.6,18.9,37.1,19.6z"/>
<path class="st12" d="M20.2,37.2c-0.2,0-0.3,0-0.4,0c-0.7-0.5-1.4-1-2-1.5c0.8-0.8,1.5-1.5,2.3-2.3c0.7,0.7,1.4,1.5,2.2,2.3
	C21.6,36.1,20.9,36.6,20.2,37.2z"/>
<path class="st13" d="M6.5,20c-0.8,0.8-1.5,1.5-2.3,2.3c-0.5-0.7-1-1.4-1.5-2.1c-0.1-0.1-0.1-0.4,0-0.5c0.5-0.7,1-1.4,1.5-2.1
	C5,18.4,5.8,19.2,6.5,20z"/>
<path class="st0" d="M8.5,29.3c0.7,0,1.3,0,2,0c0,1.1,0,2.2,0,3.3c-0.8-0.1-1.6-0.2-2.4-0.4c-0.2,0-0.4-0.2-0.5-0.4
	c-0.2-0.8-0.3-1.7-0.4-2.6C7.6,29.3,8,29.3,8.5,29.3z"/>
<path class="st13" d="M29.4,32.2c0-1,0-1.9,0-2.9c1.1,0,2.2,0,3.3,0c-0.1,1-0.3,1.9-0.4,2.9c-0.9,0.1-1.7,0.2-2.5,0.4
	C29.4,32.7,29.4,32.6,29.4,32.2z"/>
<path class="st0" d="M10.5,7.9c0,0.9,0,1.8,0,2.7c-1.1,0-2.2,0-3.3,0c0.1-0.9,0.3-1.8,0.4-2.7c0-0.1,0.2-0.2,0.4-0.3
	c0.8-0.1,1.6-0.3,2.5-0.4C10.5,7.5,10.5,7.6,10.5,7.9z"/>
<path class="st13" d="M32.7,10.5c-1.1,0.1-2.1,0.1-3.3,0.1c0-0.5,0-1.1,0-1.6c0-0.5,0-1.1,0-1.6c0.6,0.1,1.1,0.2,1.7,0.3
	c1.3,0.2,1.3,0.2,1.4,1.4C32.6,9.5,32.6,10,32.7,10.5z"/>
<path class="st5" d="M17.6,1.9c0.8-0.6,1.6-1.2,2.5-1.8c1.9,1.4,3.7,2.7,5.6,4.1c-1.9,1.9-3.8,3.7-5.7,5.5c-1.7-1.7-3.6-3.6-5.5-5.5
	C15.4,3.5,16.5,2.7,17.6,1.9z M21.9,2.9C21.3,2.5,20.7,2,20,1.5c-1.3,1-2.6,1.9-3.9,2.8C17.5,5.7,18.8,7,20,8.2
	c1.3-1.3,2.6-2.5,4-3.8C23.3,3.9,22.6,3.4,21.9,2.9z"/>
<path class="st8" d="M21.9,3.1c0.7,0.5,1.3,1,2,1.5c-1.4,1.3-2.7,2.6-4,3.8c-1.2-1.2-2.4-2.5-3.8-3.8c1.2-0.9,2.5-1.9,3.9-2.8
	C20.6,2.2,21.2,2.6,21.9,3.1z M19.8,3.1c-0.7,0.5-1.4,1-2,1.5c0.8,0.8,1.5,1.6,2.2,2.3c0.8-0.7,1.5-1.5,2.3-2.3
	c-0.7-0.5-1.4-1-2-1.5C20.1,3.1,20,3.1,19.8,3.1z"/>
<path class="st12" d="M19.8,3.1c0.2,0,0.3,0,0.4,0c0.7,0.5,1.4,1,2,1.5c-0.8,0.8-1.5,1.5-2.3,2.3c-0.7-0.7-1.4-1.5-2.2-2.3
	C18.4,4.2,19,3.7,19.8,3.1z"/>
<g>
	<polygon class="st14" points="20,11.8 22.4,14.2 25.8,14.2 25.8,17.6 28.2,20 25.8,22.4 25.8,25.8 22.4,25.8 20,28.2 17.6,25.8 
		14.2,25.8 14.2,22.4 11.8,20 14.2,17.6 14.2,14.2 17.6,14.2 20,11.8 	"/>
	<path class="st15" d="M20,10.7l2.7,2.7l3.9,0l0,3.9l2.7,2.8l-2.7,2.7l0,3.9l-3.9,0L20,29.3v-0.6l2.6-2.6l3.6,0l0-3.6l2.6-2.6
		l-2.6-2.6l0-3.6l-3.6,0L20,11.2V10.7L20,10.7z M20,29.3l-2.7-2.7l-3.9,0l0-3.9L10.7,20l2.7-2.8l0-3.9l3.9,0l2.7-2.7v0.6l-2.6,2.6
		l-3.6,0l0,3.6L11.2,20l2.6,2.6l0,3.6l3.6,0l2.6,2.6V29.3L20,29.3z"/>
	<polygon class="st16" points="22.8,18.7 23.4,20 24.8,20.2 23.7,21.1 24,22.6 22.8,21.8 21.5,22.6 21.8,21.1 20.7,20.2 22.2,20 
		22.8,18.7 	"/>
	<path class="st16" d="M20,15.5c1.9,0,3.6,1,4.5,2.5c-0.7-0.7-1.6-1.1-2.7-1.1c-2.1,0-3.8,1.7-3.8,3.8s1.7,3.8,3.8,3.8
		c1,0,2-0.4,2.7-1.1c-0.9,1.5-2.6,2.5-4.5,2.5c-2.9,0-5.2-2.3-5.2-5.2C14.8,17.8,17.2,15.5,20,15.5L20,15.5z"/>
</g>
</svg>
