<svg width="40" height="40" viewBox="0 0 40 40" fill="none" xmlns="http://www.w3.org/2000/svg">
<path d="M12.686 25.1168C12.6859 25.6088 12.6859 26.0341 12.6859 26.5454C12.4252 26.5454 12.2069 26.5453 11.9885 26.5454C9.72451 26.5466 7.46043 26.5537 5.19649 26.5399C4.97519 26.5386 4.75468 26.4091 4.53381 26.3391C4.63013 26.1134 4.67069 25.8335 4.83133 25.6701C6.56888 23.9026 8.32531 22.1534 10.1604 20.3152C10.9787 21.1628 11.7541 21.9454 12.4983 22.7563C12.628 22.8977 12.6682 23.1564 12.6771 23.364C12.701 23.9251 12.6857 24.4879 12.686 25.1168Z" fill="#201965"/>
<path d="M27.209 23.6678C27.1307 23.1448 27.3045 22.8075 27.6469 22.4856C28.3511 21.8236 29.0135 21.1178 29.7728 20.3494C31.2379 21.8286 32.6608 23.2665 34.0854 24.7027C34.4501 25.0703 34.8357 25.4189 35.1791 25.8049C35.2927 25.9325 35.3696 26.163 35.3378 26.3217C35.318 26.4207 35.0636 26.5367 34.9141 26.5372C32.405 26.5461 29.8959 26.5383 27.3867 26.5314C27.3464 26.5313 27.3062 26.4966 27.2089 26.4518C27.2089 25.5624 27.2089 24.6466 27.209 23.6678Z" fill="#201965"/>
<path d="M12.2371 13.3669C12.4316 13.4906 12.6662 13.6118 12.6703 13.7403C12.701 14.7067 12.7004 15.6748 12.674 16.6415C12.6687 16.8382 12.5586 17.0744 12.4193 17.2183C11.6824 17.9792 10.9207 18.7164 10.0667 19.5617C9.08356 18.5522 8.11633 17.5503 7.13877 16.5584C6.42592 15.835 5.68528 15.1382 4.98766 14.4009C4.77836 14.1797 4.67213 13.8623 4.51868 13.589C4.82683 13.5153 5.13448 13.3804 5.44322 13.3778C7.68553 13.3595 9.92806 13.3679 12.2371 13.3669Z" fill="#1D1663"/>
<path d="M25.4322 34.7229C23.7468 33.0571 22.0959 31.4245 20.3839 29.7314C21.2287 28.8938 22.0484 28.0733 22.8821 27.267C22.9632 27.1885 23.131 27.1725 23.2588 27.1717C24.32 27.1644 25.3813 27.1675 26.5236 27.1675C26.535 27.4265 26.5542 27.6616 26.5544 27.8967C26.5562 30.0316 26.564 32.1665 26.5445 34.3012C26.5415 34.6275 26.4079 34.9526 26.3347 35.2782C26.0454 35.1042 25.7561 34.9302 25.4322 34.7229Z" fill="#1F1864"/>
<path d="M18.0619 28.2661C18.5621 28.7515 19.0273 29.2042 19.5442 29.7071C17.8854 31.3473 16.2724 32.9419 14.6598 34.5369C14.4357 34.7586 14.2414 35.0228 13.9844 35.1953C13.6666 35.4087 13.3471 35.3793 13.3451 34.8998C13.3343 32.3458 13.34 29.7917 13.34 27.168C14.5161 27.168 15.6533 27.066 16.7555 27.2166C17.2175 27.2797 17.6053 27.8782 18.0619 28.2661Z" fill="#1D1663"/>
<path d="M32.5159 13.3687C33.3084 13.369 34.0335 13.3555 34.7573 13.3788C34.9573 13.3853 35.1538 13.5012 35.3519 13.5669C35.2789 13.78 35.2667 14.0525 35.1235 14.197C33.3777 15.9591 31.6126 17.7024 29.7519 19.5505C28.9314 18.7123 28.1151 17.8859 27.3127 17.0464C27.2348 16.9649 27.2167 16.8021 27.2159 16.6768C27.2086 15.6008 27.2117 14.5247 27.2117 13.3687C28.9794 13.3687 30.7137 13.3687 32.5159 13.3687Z" fill="#1D1662"/>
<path d="M19.342 10.407C18.684 11.0305 17.9936 11.6248 17.3819 12.2904C17.09 12.6079 16.8201 12.7364 16.3993 12.7247C15.4066 12.6973 14.4126 12.7159 13.3399 12.7159C13.3399 12.1747 13.3399 11.6648 13.3399 11.155C13.3397 9.17506 13.3401 7.19514 13.339 5.21523C13.3388 4.82158 13.3536 4.45055 13.9911 4.75064C15.7346 6.48287 17.4167 8.14971 19.0834 9.83148C19.2224 9.97172 19.2583 10.2128 19.342 10.407Z" fill="#1C1562"/>
<path d="M25.8566 4.73083C26.2873 4.48654 26.5507 4.57169 26.5515 5.1016C26.5555 7.60911 26.5533 10.1166 26.5533 12.7127C25.3841 12.7127 24.2383 12.7727 23.106 12.6764C22.7621 12.6472 22.4555 12.1862 22.0763 11.8605C21.7576 11.5554 21.4944 11.3126 21.2115 11.0274C21.0786 10.5775 20.3578 10.7075 20.4707 10.116C22.2929 8.30783 24.0747 6.51933 25.8566 4.73083Z" fill="#1C1562"/>
<path d="M37.1903 16.0157C38.0804 17.2097 38.9295 18.3739 39.8087 19.5151C40.0585 19.8393 40.0662 20.0694 39.8169 20.3982C38.5258 22.1014 37.2569 23.8212 35.9979 25.5115C34.1209 23.6385 32.2503 21.772 30.4081 19.9337C32.2101 18.1553 34.0798 16.31 36.002 14.413C36.3405 14.8699 36.7505 15.4235 37.1903 16.0157ZM37.3944 18.1843C36.8585 17.4787 36.3226 16.7731 35.7963 16.0802C34.4511 17.4103 33.1719 18.6751 32.0105 19.8234C33.281 21.1275 34.5586 22.439 35.8627 23.7776C36.6897 22.6688 37.5055 21.5396 38.364 20.4433C38.6609 20.0641 38.629 19.7951 38.3373 19.4528C38.0169 19.0768 37.7426 18.6621 37.3944 18.1843Z" fill="#14A89D"/>
<path d="M22.4215 38.1853C21.5841 38.8003 20.7851 39.3859 19.9472 40C18.0678 38.6208 16.2005 37.2507 14.3472 35.8908C16.257 34.0357 18.154 32.1931 20.0315 30.3694C21.7611 32.0994 23.6302 33.9689 25.5472 35.8862C24.5528 36.6173 23.5064 37.3866 22.4215 38.1853ZM18.0911 37.2207C18.7045 37.671 19.318 38.1214 19.9526 38.5872C21.2794 37.6107 22.5729 36.6588 23.8081 35.7497C22.4641 34.3936 21.1878 33.1059 20.0141 31.9217C18.7117 33.1751 17.4037 34.4338 16.0533 35.7334C16.7101 36.2109 17.3626 36.6853 18.0911 37.2207Z" fill="#14A89D"/>
<path d="M2.5218 16.2602C3.02307 15.5937 3.49369 14.9645 3.95112 14.353C5.85127 16.2416 7.71862 18.0976 9.55355 19.9214C7.71149 21.7543 5.83553 23.6209 3.9147 25.5322C2.84747 24.0969 1.75957 22.6393 0.677732 21.1773C-0.226807 19.9549 -0.224392 19.952 0.675865 18.7379C1.27967 17.9235 1.88596 17.111 2.5218 16.2602ZM5.43801 22.6054C6.33247 21.7556 7.22691 20.9059 8.08636 20.0894C6.69043 18.6954 5.40576 17.4124 4.07611 16.0846C3.18103 17.2902 2.28033 18.4922 1.39956 19.7085C1.32014 19.8182 1.29763 20.0709 1.36981 20.171C2.26134 21.4072 3.1754 22.6275 4.20514 24.0157C4.63674 23.5186 5.00368 23.096 5.43801 22.6054Z" fill="#12A79C"/>
<path d="M12.6757 34.9413C12.2566 34.9972 11.8403 35.032 11.437 34.9752C9.67123 34.7266 7.90765 34.461 6.14817 34.1722C5.95858 34.141 5.6731 33.9398 5.6474 33.7827C5.2927 31.6152 4.97577 29.4417 4.64075 27.2108C7.32553 27.2108 9.95612 27.2108 12.6844 27.2108C12.6844 29.7734 12.6844 32.3258 12.6757 34.9413ZM11.5648 28.4993C11.3741 28.4275 11.1867 28.3057 10.9922 28.2936C10.4967 28.2625 9.99811 28.2793 9.50075 28.279C8.35328 28.2783 7.20581 28.2788 5.93859 28.2788C6.19573 29.9084 6.42991 31.4302 6.68881 32.9479C6.706 33.0486 6.90243 33.1734 7.03012 33.193C8.51986 33.4219 10.0124 33.6327 11.5728 33.8583C11.5728 32.074 11.5728 30.3489 11.5648 28.4993Z" fill="#12A79C"/>
<path d="M27.2044 28.2367C27.2045 27.8618 27.2045 27.5529 27.2045 27.2013C29.906 27.2013 32.5395 27.2013 35.2529 27.2013C35.1036 28.2227 34.9645 29.1925 34.8193 30.1615C34.6463 31.3161 34.4553 32.4683 34.2997 33.6252C34.2501 33.9934 34.1289 34.1451 33.7258 34.2005C31.7787 34.4683 29.8382 34.7843 27.8947 35.0786C27.6969 35.1085 27.4943 35.1073 27.2043 35.1264C27.2043 32.8271 27.2043 30.5649 27.2044 28.2367ZM33.6064 28.2839C32.0475 28.2845 30.4884 28.2994 28.9298 28.277C28.4588 28.2702 28.3054 28.4168 28.3138 28.8916C28.3402 30.3945 28.3194 31.8983 28.3243 33.4017C28.3248 33.544 28.3771 33.6861 28.4115 33.8595C29.8206 33.6467 31.1745 33.407 32.5382 33.2539C33.0736 33.1938 33.2687 32.989 33.333 32.4882C33.4785 31.3556 33.6825 30.2305 33.8303 29.0982C33.8637 28.8421 33.7648 28.569 33.6064 28.2839Z" fill="#12A79C"/>
<path d="M6.30035 5.69482C8.43608 5.3803 10.5145 5.07311 12.6443 4.7583C12.6443 7.40053 12.6443 10.0021 12.6443 12.6648C10.0003 12.6648 7.34751 12.6648 4.65112 12.6648C4.9775 10.4708 5.28446 8.31622 5.64141 6.1699C5.67197 5.9861 6.03462 5.85678 6.30035 5.69482ZM9.48261 6.35973C8.55236 6.50513 7.62213 6.65053 6.68039 6.79773C6.43584 8.42639 6.20103 9.99021 5.96143 11.586C7.88907 11.586 9.70713 11.586 11.5261 11.586C11.5261 9.72466 11.5261 7.91572 11.5261 6.06611C10.8498 6.16594 10.2261 6.25799 9.48261 6.35973Z" fill="#10A79C"/>
<path d="M34.2998 6.4607C34.6214 8.55449 34.9352 10.5909 35.257 12.6792C32.5502 12.6792 29.9144 12.6792 27.2493 12.6792C27.2493 10.0273 27.2493 7.40967 27.2493 4.76062C29.4265 5.08129 31.5496 5.39812 33.6744 5.70344C34.0995 5.76452 34.3324 5.95548 34.2998 6.4607ZM28.636 6.09828C28.5316 6.27103 28.3416 6.44152 28.3369 6.61689C28.3088 7.67374 28.3231 8.7317 28.3232 9.7893C28.3232 10.3881 28.3232 10.987 28.3232 11.5878C30.2478 11.5878 32.0704 11.5878 33.9382 11.5878C33.7131 10.0674 33.5093 8.59934 33.26 7.13898C33.2327 6.97891 32.9598 6.77314 32.7739 6.74077C31.4379 6.50805 30.095 6.31467 28.636 6.09828Z" fill="#10A79C"/>
<path d="M10.8009 20.2101C10.7474 20.0535 10.6613 19.873 10.7101 19.8234C11.3149 19.2091 11.9392 18.614 12.6606 17.9149C12.6606 19.3124 12.6606 20.5884 12.6606 22.0433C11.9839 21.3788 11.4075 20.8129 10.8009 20.2101Z" fill="#F5B44C"/>
<path d="M19.9978 29.17C19.2804 28.5674 18.612 27.9591 17.9436 27.3507C17.9766 27.301 18.0095 27.2513 18.0425 27.2017C19.3068 27.2017 20.5712 27.2017 21.8355 27.2017C21.8784 27.2591 21.9213 27.3166 21.9642 27.3741C21.3251 27.9708 20.6859 28.5675 19.9978 29.17Z" fill="#F5B650"/>
<path d="M19.9347 10.8046C20.6521 11.4072 21.3205 12.0155 21.9889 12.6239C21.9559 12.6736 21.923 12.7233 21.89 12.7729C20.6257 12.7729 19.3613 12.7729 18.097 12.7729C18.0541 12.7155 18.0112 12.658 17.9683 12.6006C18.6074 12.0038 19.2466 11.4071 19.9347 10.8046Z" fill="#F5B650"/>
<path d="M13.3357 24.2553C13.3426 24.0647 13.3487 23.9308 13.3554 23.7826C14.2374 24.7247 15.1077 25.6543 15.8972 26.4977C15.229 26.4977 14.3121 26.4977 13.335 26.4977C13.335 25.7424 13.335 25.0272 13.3357 24.2553Z" fill="#F5B44C"/>
<path d="M14.0935 15.6065C13.92 15.8652 13.7795 16.0889 13.6391 16.3127C13.5406 16.2473 13.4421 16.182 13.3436 16.1166C13.3436 15.3006 13.3307 14.484 13.3594 13.669C13.3631 13.5628 13.5786 13.3796 13.7007 13.3755C14.504 13.349 15.3085 13.3619 16.2063 13.5238C15.5131 14.2063 14.8198 14.8889 14.0935 15.6065Z" fill="#F5B44C"/>
<path d="M26.5519 14.8134C26.5521 15.2824 26.5521 15.6901 26.5521 16.15C25.5966 15.1821 24.7165 14.2906 23.7949 13.357C24.603 13.357 25.4055 13.341 26.2058 13.3743C26.326 13.3793 26.514 13.6038 26.5356 13.7469C26.5852 14.0754 26.5515 14.4163 26.5519 14.8134Z" fill="#F5B44C"/>
<path d="M28.0165 18.6531C28.486 19.0681 28.9161 19.4554 29.4051 19.8957C28.6346 20.6293 27.976 21.2563 27.2651 21.933C27.2651 20.6302 27.2651 19.3586 27.2651 17.983C27.5294 18.2214 27.7532 18.4234 28.0165 18.6531Z" fill="#F4B54D"/>
<path d="M25.7091 26.5135C25.6518 26.5156 25.5944 26.5177 25.4621 26.4679C25.0382 26.3772 24.6893 26.3383 24.3162 26.2967C24.5655 25.8948 24.8034 25.5115 25.0413 25.1281C25.0413 25.1281 25.037 25.1207 25.0896 25.1226C25.5445 24.8093 25.9469 24.4942 26.4009 24.1387C26.4009 24.5487 26.3702 24.8948 26.4076 25.2335C26.474 25.8338 26.4259 26.3464 25.7091 26.5135Z" fill="#F7B243"/>
<path d="M25.7453 26.5397C26.426 26.3463 26.4741 25.8337 26.4077 25.2334C26.3703 24.8947 26.401 24.5486 26.401 24.1386C25.947 24.4941 25.5446 24.8092 25.0933 25.1249C25.4917 24.6146 25.9392 24.1039 26.3867 23.5931C26.4577 23.6225 26.5287 23.6519 26.5997 23.6812C26.5997 24.5806 26.6201 25.4812 26.5642 26.3771C26.5593 26.4558 26.0542 26.5037 25.7453 26.5397Z" fill="#EDBE70"/>
<path d="M24.9957 25.1339C24.8035 25.5114 24.5656 25.8948 24.3163 26.2967C24.6894 26.3382 25.0383 26.3771 25.4196 26.4611C24.8865 26.5428 24.321 26.5793 23.7555 26.6158C23.719 26.5419 23.6824 26.4679 23.6459 26.394C24.0806 25.9759 24.5153 25.5578 24.9957 25.1339Z" fill="#EDBE70"/>
<path d="M37.4213 18.2242C37.7426 18.662 38.0168 19.0767 38.3372 19.4527C38.6289 19.795 38.6608 20.064 38.3639 20.4432C37.5055 21.5395 36.6897 22.6687 35.8627 23.7775C34.5586 22.4389 33.281 21.1274 32.0105 19.8233C33.1718 18.675 34.4511 17.4102 35.7963 16.0801C36.3225 16.773 36.8584 17.4786 37.4213 18.2242ZM37.1049 19.5435C36.6292 18.9075 36.1535 18.2715 35.7247 17.6983C34.8962 18.4992 34.128 19.2418 33.4649 19.8828C34.2168 20.654 34.9748 21.4316 35.7402 22.2166C36.2151 21.5734 36.7254 20.9181 37.1849 20.2293C37.2755 20.0936 37.1704 19.8292 37.1049 19.5435Z" fill="#EEF9FA"/>
<path d="M18.0531 37.1903C17.3626 36.6854 16.7101 36.2109 16.0533 35.7335C17.4037 34.4339 18.7117 33.1751 20.0141 31.9218C21.1878 33.1059 22.4641 34.3937 23.8082 35.7497C22.5729 36.6588 21.2795 37.6107 19.9526 38.5873C19.3181 38.1214 18.7046 37.6711 18.0531 37.1903ZM20.1899 37.1283C20.887 36.6154 21.5841 36.1024 22.1954 35.6527C21.4067 34.8431 20.6472 34.0635 19.9641 33.3623C19.2041 34.1062 18.4351 34.8589 17.6577 35.6198C18.3248 36.1131 19.0084 36.6284 19.7063 37.1237C19.806 37.1945 19.9753 37.1685 20.1899 37.1283Z" fill="#EEF9FA"/>
<path d="M5.40432 22.6394C5.00368 23.096 4.63675 23.5186 4.20514 24.0157C3.17541 22.6275 2.26134 21.4072 1.36982 20.171C1.29763 20.0709 1.32014 19.8182 1.39956 19.7085C2.28033 18.4922 3.18104 17.2902 4.07611 16.0846C5.40576 17.4124 6.69044 18.6954 8.08636 20.0894C7.22692 20.9059 6.33247 21.7556 5.40432 22.6394ZM6.54206 19.9334C5.77928 19.1795 5.01649 18.4255 4.21816 17.6365C3.67881 18.358 3.16021 19.0314 2.67218 19.726C2.5962 19.8341 2.59395 20.0846 2.66936 20.1916C3.17035 20.9026 3.70178 21.5925 4.206 22.2661C5.00763 21.4935 5.76738 20.7612 6.54206 19.9334Z" fill="#EEF9FA"/>
<path d="M11.5688 28.5616C11.5729 30.3489 11.5729 32.0741 11.5729 33.8583C10.0124 33.6328 8.51987 33.4219 7.03013 33.193C6.90244 33.1734 6.70602 33.0487 6.68883 32.948C6.42993 31.4303 6.19575 29.9084 5.9386 28.2788C7.20583 28.2788 8.3533 28.2783 9.50076 28.279C9.99813 28.2794 10.4967 28.2626 10.9922 28.2936C11.1867 28.3058 11.3741 28.4275 11.5688 28.5616ZM8.38625 29.3298C8.00649 29.3298 7.62674 29.3298 7.17451 29.3298C7.3086 30.2434 7.41252 31.0857 7.57287 31.9173C7.60087 32.0625 7.85198 32.2382 8.02458 32.2705C8.82167 32.4196 9.62742 32.523 10.4582 32.647C10.4582 31.5436 10.4582 30.4598 10.4582 29.3298C9.77968 29.3298 9.14989 29.3298 8.38625 29.3298Z" fill="#EFF7FA"/>
<path d="M33.6665 28.2938C33.7647 28.569 33.8636 28.8421 33.8302 29.0981C33.6825 30.2305 33.4784 31.3556 33.333 32.4881C33.2686 32.989 33.0735 33.1938 32.5381 33.2539C31.1744 33.407 29.8206 33.6467 28.4114 33.8595C28.377 33.6861 28.3247 33.544 28.3242 33.4016C28.3194 31.8982 28.3401 30.3945 28.3137 28.8916C28.3053 28.4168 28.4587 28.2702 28.9297 28.277C30.4883 28.2993 32.0474 28.2845 33.6665 28.2938ZM29.3881 32.284C29.3572 32.5735 29.4483 32.6633 29.7658 32.606C30.5834 32.4584 31.4091 32.3549 32.2898 32.2252C32.4307 31.2818 32.571 30.3423 32.7159 29.372C31.5666 29.372 30.4984 29.372 29.3877 29.372C29.3877 30.3299 29.3877 31.245 29.3881 32.284Z" fill="#EEF9FA"/>
<path d="M9.54253 6.35493C10.2261 6.25804 10.8498 6.16599 11.5261 6.06616C11.5261 7.91577 11.5261 9.72471 11.5261 11.586C9.70713 11.586 7.88907 11.586 5.96143 11.586C6.20103 9.99026 6.43584 8.42644 6.68039 6.79778C7.62213 6.65058 8.55236 6.50518 9.54253 6.35493ZM10.5064 7.79145C10.4891 7.62645 10.4717 7.46145 10.4511 7.26577C9.58585 7.40026 8.78148 7.51546 7.98215 7.65847C7.83572 7.68466 7.61 7.80587 7.59018 7.91386C7.42999 8.78659 7.31028 9.66665 7.17418 10.5713C8.33139 10.5713 9.38875 10.5713 10.5067 10.5713C10.5067 9.66573 10.5067 8.79335 10.5064 7.79145Z" fill="#F1FAFB"/>
<path d="M28.6951 6.10364C30.095 6.31476 31.4379 6.50815 32.7739 6.74086C32.9598 6.77324 33.2327 6.97901 33.26 7.13907C33.5093 8.59944 33.7131 10.0675 33.9382 11.5879C32.0704 11.5879 30.2478 11.5879 28.3232 11.5879C28.3232 10.9871 28.3232 10.3882 28.3232 9.78939C28.3231 8.7318 28.3088 7.67384 28.3369 6.61699C28.3416 6.44162 28.5316 6.27113 28.6951 6.10364ZM32.6918 10.4385C32.6273 9.95029 32.5653 9.4618 32.4979 8.97404C32.3267 7.73405 32.3258 7.73355 31.056 7.52724C30.5245 7.44089 29.9924 7.35785 29.3884 7.26183C29.3884 7.84354 29.3884 8.37653 29.3884 8.90952C29.3884 9.46085 29.3884 10.0122 29.3884 10.5472C30.5266 10.5472 31.5802 10.5472 32.6918 10.4385Z" fill="#EEF9FA"/>
<path d="M37.1303 19.5838C37.1705 19.8292 37.2755 20.0937 37.185 20.2294C36.7255 20.9181 36.2152 21.5734 35.7403 22.2167C34.9749 21.4316 34.2169 20.6541 33.465 19.8828C34.1281 19.2418 34.8963 18.4992 35.7248 17.6984C36.1536 18.2716 36.6293 18.9075 37.1303 19.5838Z" fill="#211B62"/>
<path d="M20.1511 37.1579C19.9753 37.1686 19.8061 37.1945 19.7064 37.1237C19.0084 36.6284 18.3249 36.1132 17.6577 35.6198C18.4351 34.8589 19.2042 34.1062 19.9642 33.3623C20.6472 34.0635 21.4068 34.8432 22.1954 35.6528C21.5842 36.1025 20.887 36.6154 20.1511 37.1579Z" fill="#1E1863"/>
<path d="M6.53462 19.9812C5.76741 20.7612 5.00767 21.4935 4.20603 22.2661C3.70181 21.5925 3.17039 20.9026 2.66939 20.1916C2.59398 20.0846 2.59623 19.8341 2.67221 19.726C3.16024 19.0314 3.67884 18.358 4.21819 17.6365C5.01652 18.4255 5.77931 19.1795 6.53462 19.9812Z" fill="#201961"/>
<path d="M8.4531 29.3297C9.14982 29.3297 9.77961 29.3297 10.4581 29.3297C10.4581 30.4597 10.4581 31.5436 10.4581 32.6469C9.62735 32.5229 8.82159 32.4195 8.02451 32.2704C7.85191 32.2381 7.6008 32.0624 7.5728 31.9172C7.41245 31.0857 7.30852 30.2434 7.17444 29.3297C7.62667 29.3297 8.00642 29.3297 8.4531 29.3297Z" fill="#201965"/>
<path d="M29.3879 32.2222C29.3877 31.2451 29.3877 30.33 29.3877 29.3721C30.4984 29.3721 31.5666 29.3721 32.716 29.3721C32.571 30.3424 32.4308 31.2819 32.2899 32.2253C31.4091 32.355 30.5834 32.4585 29.7658 32.6061C29.4484 32.6634 29.3572 32.5736 29.3879 32.2222Z" fill="#201961"/>
<path d="M10.5066 7.8562C10.5067 8.79334 10.5067 9.66571 10.5067 10.5713C9.38876 10.5713 8.3314 10.5713 7.17419 10.5713C7.3103 9.66663 7.43001 8.78657 7.59019 7.91384C7.61001 7.80585 7.83573 7.68465 7.98216 7.65845C8.78149 7.51544 9.58586 7.40024 10.4512 7.26575C10.4717 7.46143 10.4891 7.62643 10.5066 7.8562Z" fill="#201965"/>
<path d="M32.6628 10.4928C31.5802 10.5472 30.5267 10.5472 29.3884 10.5472C29.3884 10.0122 29.3884 9.46086 29.3884 8.90953C29.3884 8.37654 29.3884 7.84356 29.3884 7.26184C29.9924 7.35786 30.5245 7.4409 31.056 7.52725C32.3259 7.73356 32.3267 7.73406 32.498 8.97405C32.5654 9.46181 32.6274 9.9503 32.6628 10.4928Z" fill="#201961"/>
<path d="M17.5555 1.9497C18.3929 1.33471 19.1919 0.749153 20.0298 0.135057C21.9093 1.51416 23.7765 2.8843 25.6299 4.24426C23.72 6.09934 21.8231 7.94193 19.9455 9.76562C18.2159 8.03562 16.3468 6.16611 14.4299 4.24876C15.4242 3.51774 16.4707 2.74844 17.5555 1.9497ZM21.886 2.91432C21.2725 2.46397 20.659 2.01362 20.0245 1.5478C18.6976 2.52431 17.4041 3.47625 16.1689 4.38534C17.513 5.74139 18.7893 7.02913 19.963 8.2133C21.2654 6.95994 22.5733 5.70117 23.9237 4.4016C23.267 3.92412 22.6144 3.4497 21.886 2.91432Z" fill="#14A89D"/>
<path d="M21.8911 3.0844C22.5816 3.5893 23.2341 4.06372 23.8909 4.5412C22.5405 5.84077 21.2325 7.09954 19.9301 8.35291C18.7564 7.16873 17.4801 5.881 16.1361 4.52494C17.3713 3.61585 18.6648 2.66391 19.9916 1.6874C20.6262 2.15322 21.2397 2.60357 21.8911 3.0844ZM19.7544 3.14637C19.0572 3.6593 18.3601 4.17222 17.7488 4.62194C18.5375 5.43152 19.297 6.2112 19.9801 6.9124C20.7401 6.1685 21.5092 5.41576 22.2865 4.65488C21.6194 4.16155 20.9358 3.64626 20.2379 3.15095C20.1382 3.0802 19.9689 3.10612 19.7544 3.14637Z" fill="#EEF9FA"/>
<path d="M19.7847 3.14145C19.9605 3.13074 20.1297 3.10482 20.2294 3.17557C20.9274 3.67088 21.6109 4.18616 22.2781 4.6795C21.5007 5.44037 20.7316 6.19311 19.9716 6.93701C19.2886 6.23582 18.529 5.45613 17.7404 4.64656C18.3516 4.19684 19.0488 3.68391 19.7847 3.14145Z" fill="#1E1863"/>
</svg>
