<svg width="24" height="24" viewBox="0 0 24 24" fill="none" xmlns="http://www.w3.org/2000/svg">
<g clip-path="url(#clip0_1_56)">
<path d="M0.375 12C0.375 18.4219 5.57812 23.625 12 23.625C18.4219 23.625 23.625 18.4219 23.625 12C23.625 5.57812 18.4219 0.375 12 0.375C5.57812 0.375 0.375 5.57812 0.375 12ZM12 1.875C17.5641 1.875 22.125 6.37969 22.125 12C22.125 17.5641 17.6203 22.125 12 22.125C6.43594 22.125 1.875 17.6203 1.875 12C1.875 6.43594 6.37969 1.875 12 1.875ZM12.5859 6.21094L17.9813 11.6016C18.2016 11.8219 18.2016 12.1781 17.9813 12.3984L12.5859 17.7891C12.3656 18.0094 12.0094 18.0094 11.7891 17.7891L11.4656 17.4656C11.2453 17.2453 11.2453 16.8797 11.475 16.6641L15.4875 12.7969H6.5625C6.25313 12.7969 6 12.5437 6 12.2344V11.7656C6 11.4563 6.25313 11.2031 6.5625 11.2031H15.4828L11.4703 7.33594C11.2453 7.11562 11.2406 6.75469 11.4609 6.53437L11.7844 6.21094C12.0094 5.99062 12.3656 5.99062 12.5859 6.21094Z" fill="#10A79C"/>
</g>
<defs>
<clipPath id="clip0_1_56">
<rect width="24" height="24" fill="white"/>
</clipPath>
</defs>
</svg>
